<svg width="314" height="32" viewBox="0 0 314 32" fill="none" xmlns="http://www.w3.org/2000/svg">
<g clip-path="url(#clip0_72_181)">
<path d="M62.2182 8.03522C60.6702 7.54129 59.3049 7.2855 58.1222 7.2855C56.8091 7.2855 55.7655 7.53247 54.9915 8.03522C54.2262 8.52916 53.8436 9.22596 53.8436 10.108C53.8436 10.9106 54.1132 11.581 54.6437 12.119C55.1741 12.6571 55.8525 13.0981 56.6612 13.4421C57.47 13.7861 58.5744 14.1653 59.9745 14.5799C61.9225 15.162 63.5227 15.7353 64.7662 16.3175C66.0185 16.8996 67.0795 17.7552 67.9578 18.8842C68.8361 20.0132 69.271 21.5038 69.271 23.3561C69.271 25.1201 68.8014 26.6637 67.8535 27.9691C66.9055 29.2833 65.6011 30.28 63.9401 30.968C62.2791 31.656 60.3833 31.9999 58.2353 31.9999C55.9829 31.9999 53.7914 31.5766 51.6521 30.7386C49.5128 29.9007 47.6431 28.7717 46.0516 27.3605L48.3562 22.6416C49.8085 23.9911 51.4434 25.0584 53.2522 25.8257C55.0611 26.6019 56.7482 26.9812 58.3135 26.9812C59.8528 26.9812 61.0529 26.6813 61.9399 26.0904C62.8183 25.4994 63.2531 24.6879 63.2531 23.6648C63.2531 22.8357 62.9835 22.1565 62.453 21.6185C61.9138 21.0804 61.2355 20.6482 60.4181 20.3131C59.5919 19.9779 58.4701 19.6074 57.0439 19.1929C55.0959 18.6107 53.5044 18.0462 52.2695 17.4994C51.0347 16.9437 49.9824 16.1146 49.1041 14.9944C48.2257 13.8743 47.7909 12.4101 47.7909 10.5843C47.7909 8.89961 48.2344 7.43545 49.1302 6.17414C50.0172 4.92166 51.2869 3.94261 52.9131 3.25463C54.548 2.56665 56.4351 2.22266 58.5744 2.22266C60.4441 2.22266 62.2878 2.49609 64.114 3.05176C65.9403 3.60744 67.5665 4.34835 68.9927 5.2833L66.7664 10.1433C65.288 9.23478 63.7662 8.52916 62.2182 8.03522Z" fill="white"/>
<path d="M84.5853 26.6816C85.681 25.9495 86.2985 25.0498 86.4376 23.9737V21.9892H80.8806C79.4544 21.9892 78.4022 22.2009 77.7325 22.6331C77.0629 23.0653 76.7238 23.7621 76.7238 24.7235C76.7238 25.6584 77.0716 26.4081 77.776 26.955C78.4717 27.5107 79.4283 27.7841 80.6371 27.7841C82.1764 27.7753 83.4895 27.4137 84.5853 26.6816ZM86.4811 31.6739V28.9837C85.7158 29.9539 84.7244 30.6772 83.5156 31.1799C82.3068 31.6738 80.9241 31.9296 79.3588 31.9296C77.8195 31.9296 76.4716 31.6297 75.3063 31.0388C74.1409 30.4478 73.2452 29.6275 72.6104 28.5779C71.9755 27.5283 71.6625 26.3552 71.6625 25.0586C71.6625 22.9859 72.393 21.3718 73.8453 20.1898C75.2976 19.0167 77.3586 18.417 80.0197 18.3905H86.4376V17.8084C86.4376 16.5118 86.0115 15.5063 85.1592 14.783C84.307 14.0686 83.0721 13.7069 81.4546 13.7069C79.3675 13.7069 77.1847 14.3949 74.9149 15.7797L72.9843 12.0575C74.7149 11.0961 76.2802 10.3993 77.6978 9.96712C79.1066 9.54375 80.7676 9.32324 82.6547 9.32324C85.5071 9.32324 87.7247 10.0112 89.2987 11.396C90.8728 12.7808 91.6815 14.7036 91.7076 17.1909L91.7511 31.6827L86.4811 31.6739Z" fill="white"/>
<path d="M102.491 0.952637H97.1428V31.6737H102.491V0.952637Z" fill="white"/>
<path d="M108.544 9.52591H113.892V31.6736H108.544V9.52591ZM113.362 0.908489C113.935 1.51709 114.222 2.29327 114.222 3.22822C114.222 4.13671 113.935 4.89526 113.362 5.50386C112.788 6.11246 112.057 6.41235 111.179 6.41235C110.3 6.41235 109.57 6.11246 108.996 5.50386C108.422 4.89526 108.135 4.13671 108.135 3.22822C108.135 2.29327 108.422 1.51709 108.996 0.908489C109.57 0.29989 110.3 0 111.179 0C112.057 0 112.779 0.29989 113.362 0.908489Z" fill="white"/>
<path d="M134.555 18.8755C134.503 17.2437 133.963 15.9472 132.946 14.9857C131.928 14.0155 130.589 13.5392 128.911 13.5392C127.345 13.5392 126.032 14.0155 124.98 14.9681C123.919 15.9207 123.275 17.2261 123.023 18.8843H134.555V18.8755ZM136.798 12.3749C138.572 14.386 139.451 17.2173 139.451 20.8601C139.451 21.5745 139.433 22.1125 139.407 22.4742H123.154C123.51 24.0442 124.241 25.279 125.354 26.1787C126.467 27.0784 127.832 27.5282 129.45 27.5282C130.572 27.5282 131.65 27.3165 132.685 26.8843C133.711 26.4609 134.616 25.8435 135.381 25.0409L138.259 28.0662C137.164 29.2834 135.824 30.2184 134.25 30.8799C132.676 31.5414 130.92 31.8766 129.006 31.8766C126.754 31.8766 124.771 31.4091 123.058 30.4653C121.345 29.5304 120.023 28.2074 119.084 26.5139C118.153 24.8204 117.684 22.8623 117.684 20.6572C117.684 18.4521 118.153 16.494 119.101 14.7829C120.049 13.0717 121.371 11.7399 123.075 10.7873C124.78 9.83469 126.711 9.3584 128.876 9.3584C132.389 9.3584 135.024 10.3639 136.798 12.3749Z" fill="white"/>
<path d="M162.461 11.6165C163.914 13.1513 164.644 15.224 164.644 17.8437V31.6739H159.252V19.4137C159.252 17.8701 158.809 16.6441 157.939 15.7533C157.061 14.8536 155.869 14.4038 154.356 14.4038C152.573 14.4302 151.165 15.0388 150.139 16.2296C149.112 17.4203 148.599 18.9374 148.599 20.7808V31.6651H143.251V9.52614H148.599V13.6629C150.112 10.8227 152.739 9.36737 156.504 9.31445C159.018 9.31445 161 10.0818 162.461 11.6165Z" fill="white"/>
<path d="M180.193 30.3067C178.437 31.3828 176.602 31.9209 174.68 31.9209C172.784 31.9209 171.236 31.3652 170.027 30.245C168.818 29.1248 168.218 27.4754 168.218 25.2968V14.3685L168.175 10.4346H168.218V4.34863H173.532V10.4346H179.828V14.3685H173.532V24.3442C173.532 25.3674 173.723 26.0906 174.106 26.514C174.488 26.9462 175.062 27.1579 175.836 27.1579C176.662 27.1579 177.706 26.858 178.967 26.2494L180.193 30.3067Z" fill="white"/>
<path d="M185.167 2.73438H187.559L199.534 25.5436L211.431 2.73438H213.77V31.6737H212.17L212.126 5.13349L199.864 28.5249H199.125L186.811 5.13349V31.6737H185.167V2.73438Z" fill="white"/>
<path d="M225.875 12.8776C224.527 13.6538 223.475 14.7299 222.71 16.1235C221.945 17.5171 221.562 19.0959 221.562 20.86C221.562 22.6505 221.945 24.2558 222.71 25.6582C223.475 27.0695 224.536 28.1544 225.875 28.9306C227.223 29.7067 228.745 30.086 230.441 30.086C232.137 30.086 233.676 29.6979 235.033 28.9306C236.389 28.1544 237.45 27.0695 238.198 25.6582C238.955 24.247 239.329 22.6505 239.329 20.86C239.329 19.0959 238.955 17.5171 238.198 16.1235C237.441 14.7299 236.389 13.645 235.033 12.8776C233.676 12.1015 232.145 11.7222 230.441 11.7222C228.736 11.7222 227.223 12.1015 225.875 12.8776ZM235.894 11.4487C237.502 12.3749 238.755 13.6538 239.659 15.3032C240.563 16.9438 241.016 18.8049 241.016 20.8688C241.016 22.968 240.563 24.8379 239.659 26.4785C238.755 28.1191 237.502 29.4069 235.894 30.333C234.285 31.2591 232.467 31.7178 230.441 31.7178C228.441 31.7178 226.632 31.2591 225.032 30.333C223.423 29.4069 222.162 28.1279 221.249 26.4785C220.327 24.8379 219.866 22.968 219.866 20.8688C219.866 18.796 220.327 16.9438 221.249 15.3032C222.171 13.6626 223.432 12.3749 225.032 11.4487C226.641 10.5226 228.441 10.064 230.441 10.064C232.476 10.064 234.293 10.5226 235.894 11.4487Z" fill="white"/>
<path d="M256.539 30.1828C255.026 31.206 253.504 31.7175 251.973 31.7175C250.434 31.7175 249.26 31.2148 248.434 30.2093C247.608 29.2038 247.199 27.7043 247.199 25.7197V12.1365V10.6459V5.30078H248.842V10.6371H256.13V12.1277H248.842V25.4992C248.842 28.507 249.956 30.0152 252.173 30.0152C253.434 30.0152 254.669 29.6007 255.878 28.7716L256.539 30.1828Z" fill="white"/>
<path d="M260.939 10.0994H262.626V31.665H260.939V10.0994ZM262.817 2.84028C263.104 3.13135 263.252 3.48416 263.252 3.89871C263.252 4.33973 263.104 4.71018 262.817 4.99243C262.531 5.2835 262.191 5.42462 261.809 5.42462C261.426 5.42462 261.087 5.2835 260.8 4.99243C260.513 4.70136 260.365 4.33973 260.365 3.89871C260.365 3.48416 260.513 3.13135 260.8 2.84028C261.087 2.54921 261.426 2.40808 261.809 2.40808C262.191 2.39926 262.531 2.54921 262.817 2.84028Z" fill="white"/>
<path d="M274.114 12.8776C272.766 13.6538 271.714 14.7299 270.949 16.1235C270.183 17.5171 269.801 19.0959 269.801 20.86C269.801 22.6505 270.183 24.2558 270.949 25.6582C271.714 27.0695 272.775 28.1544 274.114 28.9306C275.462 29.7067 276.984 30.086 278.68 30.086C280.384 30.086 281.915 29.6979 283.271 28.9306C284.628 28.1544 285.689 27.0695 286.437 25.6582C287.193 24.247 287.567 22.6505 287.567 20.86C287.567 19.0959 287.193 17.5171 286.437 16.1235C285.68 14.7299 284.628 13.645 283.271 12.8776C281.915 12.1015 280.384 11.7222 278.68 11.7222C276.975 11.7134 275.453 12.1015 274.114 12.8776ZM284.132 11.4487C285.741 12.3749 286.993 13.6538 287.898 15.3032C288.802 16.9438 289.254 18.8049 289.254 20.8688C289.254 22.968 288.802 24.8379 287.898 26.4785C286.993 28.1191 285.741 29.4069 284.132 30.333C282.523 31.2591 280.706 31.7178 278.68 31.7178C276.679 31.7178 274.871 31.2591 273.271 30.333C271.662 29.4069 270.401 28.1279 269.488 26.4785C268.566 24.8379 268.105 22.968 268.105 20.8688C268.105 18.796 268.566 16.9438 269.488 15.3032C270.409 13.6626 271.67 12.3749 273.271 11.4487C274.879 10.5226 276.679 10.064 278.68 10.064C280.715 10.064 282.532 10.5226 284.132 11.4487Z" fill="white"/>
<path d="M311.3 12.3132C312.769 13.8214 313.5 15.8766 313.5 18.505V31.6737H311.769V18.8402C311.769 16.6351 311.152 14.9063 309.917 13.6627C308.682 12.419 306.969 11.8016 304.769 11.8016C302.325 11.8545 300.368 12.6131 298.907 14.0596C297.438 15.5061 296.612 17.4907 296.42 20.0045V31.6825H294.69V10.0993H296.42V15.6031C297.133 13.8391 298.238 12.4808 299.734 11.5458C301.229 10.6109 303.047 10.1081 305.186 10.0552C307.795 10.064 309.83 10.8137 311.3 12.3132Z" fill="white"/>
<path d="M16.3535 12.4717C16.3274 12.4894 16.3187 12.5335 16.3448 12.5511L18.9015 14.6592C19.7712 15.3824 20.9974 15.4795 21.9801 14.915L25.8065 12.6834C25.8325 12.6658 25.8673 12.6834 25.8847 12.7099C26.4239 14.421 26.537 16.3086 26.076 18.2755C24.9455 23.1002 20.3712 26.2843 15.4404 26.2402C14.5012 26.2314 13.2837 25.9227 12.701 25.5434L6.85706 28.7893C9.19638 30.6945 12.7532 31.4618 15.7361 31.4971C20.693 31.3824 25.2586 29.0539 28.2067 25.3935C30.1981 22.7738 31.3808 19.5103 31.3808 15.9646C31.3808 12.1542 30.0155 8.6702 27.7544 5.97119L16.3535 12.4717Z" fill="white"/>
<path d="M13.6141 17.5259L12.9706 14.5005C12.9532 14.4211 12.8662 14.3859 12.7967 14.4211L6.10916 18.2844C6.03959 18.3285 5.95263 18.2844 5.92654 18.205C5.64825 17.0143 5.56999 15.753 5.74392 14.4476C6.39614 9.45531 10.7356 5.53911 15.7447 5.41562C17.0753 5.38034 17.3188 5.37152 18.2058 5.60085L23.6498 2.52257C21.2061 0.881995 18.6667 0.42334 15.9448 0.42334C7.41362 0.43216 0.5 7.38255 0.5 15.9647C0.5 19.5457 1.7088 22.8445 3.73505 25.473L12.2836 20.5336C13.3359 19.9338 13.8663 18.7166 13.6141 17.5259Z" fill="white"/>
</g>
<defs>
<clipPath id="clip0_72_181">
<rect width="313" height="32" fill="white" transform="translate(0.5)"/>
</clipPath>
</defs>
</svg>
